<?xml version="1.0" encoding="UTF-8" standalone="no"?>
<!-- Created with Inkscape (http://www.inkscape.org/) -->

<svg
   xmlns:dc="http://purl.org/dc/elements/1.1/"
   xmlns:cc="http://creativecommons.org/ns#"
   xmlns:rdf="http://www.w3.org/1999/02/22-rdf-syntax-ns#"
   xmlns:svg="http://www.w3.org/2000/svg"
   xmlns="http://www.w3.org/2000/svg"
   xmlns:sodipodi="http://sodipodi.sourceforge.net/DTD/sodipodi-0.dtd"
   xmlns:inkscape="http://www.inkscape.org/namespaces/inkscape"
   width="400"
   height="400"
   viewBox="0 0 400 400.00001"
   id="svg2"
   version="1.1"
   inkscape:version="0.91 r13725"
   sodipodi:docname="checkmark_green.svg">
  <defs
     id="defs4" />
  <sodipodi:namedview
     id="base"
     pagecolor="#ffffff"
     bordercolor="#666666"
     borderopacity="1.0"
     inkscape:pageopacity="0.0"
     inkscape:pageshadow="2"
     inkscape:zoom="1.0074671"
     inkscape:cx="-57.8397"
     inkscape:cy="125.13609"
     inkscape:document-units="px"
     inkscape:current-layer="layer1"
     showgrid="false"
     units="px"
     inkscape:snap-global="false"
     inkscape:window-width="1440"
     inkscape:window-height="816"
     inkscape:window-x="0"
     inkscape:window-y="1"
     inkscape:window-maximized="1" />
  <metadata
     id="metadata7">
    <rdf:RDF>
      <cc:Work
         rdf:about="">
        <dc:format>image/svg+xml</dc:format>
        <dc:type
           rdf:resource="http://purl.org/dc/dcmitype/StillImage" />
        <dc:title />
      </cc:Work>
    </rdf:RDF>
  </metadata>
  <g
     inkscape:label="Ebene 1"
     inkscape:groupmode="layer"
     id="layer1"
     transform="translate(0,-652.36216)">
    <flowRoot
       xml:space="preserve"
       id="flowRoot4170"
       style="font-style:normal;font-weight:normal;font-size:40px;line-height:125%;font-family:Sans;letter-spacing:0px;word-spacing:0px;fill:#d0d0d0;fill-opacity:1;stroke:none;stroke-width:1px;stroke-linecap:butt;stroke-linejoin:miter;stroke-opacity:1"
       transform="matrix(4.7038947,0,0,4.7038947,881.04313,200.22328)"><flowRegion
         id="flowRegion4172"><rect
           style="fill:#d0d0d0;fill-opacity:1"
           id="rect4174"
           width="124.07353"
           height="75.436707"
           x="-170.72517"
           y="112.14941" /></flowRegion><flowPara
         id="flowPara4176"> ✘</flowPara></flowRoot>    <path
       style="opacity:1;fill:#18d400;fill-opacity:1;fill-rule:nonzero;stroke:none;stroke-width:9.60299969;stroke-linecap:butt;stroke-miterlimit:4;stroke-dasharray:none;stroke-dashoffset:0;stroke-opacity:1"
       id="path3360"
       transform="matrix(1.2555639,0,0,1.5648163,-17.370663,534.41652)"
       sodipodi:type="arc"
       sodipodi:cx="170.22888"
       sodipodi:cy="202.97124"
       sodipodi:rx="125.56242"
       sodipodi:ry="100.7477"
       sodipodi:start="0"
       sodipodi:end="6.1737532"
       sodipodi:open="true"
       d="M 295.79131,202.97124 A 125.56242,100.7477 0 0 1 173.66359,303.68124 A 125.56242,100.7477 0 0 1 44.854369,208.481 A 125.56242,100.7477 0 0 1 159.93503,102.56267 A 125.56242,100.7477 0 0 1 295.04023,191.9682" />
    <g
       transform="matrix(4.6733663,0,0,4.6733663,918.79057,212.99734)"
       style="font-style:normal;font-weight:normal;font-size:40px;line-height:125%;font-family:Sans;letter-spacing:0px;word-spacing:0px;fill:#ffffff;fill-opacity:1;stroke:none;stroke-width:1px;stroke-linecap:butt;stroke-linejoin:miter;stroke-opacity:1"
       id="flowRoot3362">
      <path
         d="M -159.72852,142.99249 Q -158.30273,140.00421 -156.33008,136.42999 Q -154.35742,132.85578 -151.87695,129.30109 Q -149.37695,125.7464 -148.24414,124.59406 Q -147.0918,123.42218 -146.31055,122.73859 Q -145.50977,122.05499 -143.49805,121.74249 Q -141.48633,121.42999 -140.45117,121.42999 Q -139.76758,121.42999 -139.33789,121.85968 Q -138.88867,122.26984 -138.88867,122.95343 Q -138.88867,123.48078 -139.14258,123.8714 Q -139.39648,124.24249 -140.19727,125.00421 Q -144.04492,128.53937 -148.20508,135.08234 Q -152.36523,141.62531 -154.80664,147.75812 Q -155.95898,150.57062 -156.29102,151.0589 Q -156.62305,151.54718 -157.30664,151.97687 Q -157.99023,152.38703 -160.11914,152.38703 Q -161.79883,152.38703 -162.26758,152.17218 Q -162.73633,151.97687 -162.99023,151.74249 Q -163.24414,151.50812 -164.43555,149.71124 Q -165.66602,147.81671 -168.00977,145.23859 Q -169.35742,143.75421 -169.35742,142.75812 Q -169.35742,141.31281 -167.83398,140.23859 Q -166.29102,139.16437 -165.11914,139.16437 Q -163.83008,139.16437 -162.36523,140.21906 Q -160.90039,141.25421 -159.72852,142.99249 Z"
         style=""
         id="path4248" />
    </g>
  </g>
</svg>
