<?xml version="1.0" encoding="UTF-8" standalone="no"?>
<!-- Created with Inkscape (http://www.inkscape.org/) -->

<svg
   xmlns:dc="http://purl.org/dc/elements/1.1/"
   xmlns:cc="http://creativecommons.org/ns#"
   xmlns:rdf="http://www.w3.org/1999/02/22-rdf-syntax-ns#"
   xmlns:svg="http://www.w3.org/2000/svg"
   xmlns="http://www.w3.org/2000/svg"
   xmlns:sodipodi="http://sodipodi.sourceforge.net/DTD/sodipodi-0.dtd"
   xmlns:inkscape="http://www.inkscape.org/namespaces/inkscape"
   width="350"
   height="60"
   viewBox="0 0 350 60.000001"
   id="svg2"
   version="1.1"
   inkscape:version="0.91 r13725"
   sodipodi:docname="eostimelock.svg">
  <defs
     id="defs4" />
  <sodipodi:namedview
     id="base"
     pagecolor="#ffffff"
     bordercolor="#666666"
     borderopacity="1.0"
     inkscape:pageopacity="0.0"
     inkscape:pageshadow="2"
     inkscape:zoom="1.0074671"
     inkscape:cx="338.20301"
     inkscape:cy="164.83962"
     inkscape:document-units="px"
     inkscape:current-layer="layer1"
     showgrid="false"
     units="px"
     inkscape:snap-global="false"
     inkscape:window-width="1440"
     inkscape:window-height="816"
     inkscape:window-x="140"
     inkscape:window-y="58"
     inkscape:window-maximized="0" />
  <metadata
     id="metadata7">
    <rdf:RDF>
      <cc:Work
         rdf:about="">
        <dc:format>image/svg+xml</dc:format>
        <dc:type
           rdf:resource="http://purl.org/dc/dcmitype/StillImage" />
        <dc:title></dc:title>
      </cc:Work>
    </rdf:RDF>
  </metadata>
  <g
     inkscape:label="Ebene 1"
     inkscape:groupmode="layer"
     id="layer1"
     transform="translate(0,-992.36216)">
    <g
       transform="matrix(0.85512772,0,0,0.85512772,-67.348848,1059.831)"
       style="font-style:normal;font-weight:normal;font-size:40px;line-height:125%;font-family:Sans;letter-spacing:0px;word-spacing:0px;fill:#000000;fill-opacity:1;stroke:none;stroke-width:1px;stroke-linecap:butt;stroke-linejoin:miter;stroke-opacity:1"
       id="flowRoot4742">
      <path
         d="M 131.19367,79.144762 Q 132.55367,79.064762 133.35367,78.824762 Q 134.19367,78.544762 134.63367,78.024762 Q 135.07367,77.464762 135.19367,76.624762 Q 135.35367,75.784762 135.35367,74.584762 L 135.35367,59.384762 Q 135.35367,58.264762 135.19367,57.424762 Q 135.07367,56.584762 134.63367,56.024762 Q 134.19367,55.464762 133.35367,55.184762 Q 132.55367,54.864762 131.19367,54.824762 L 131.19367,53.704762 Q 133.23367,53.784762 135.27367,53.864762 Q 137.35367,53.944762 139.39367,53.944762 Q 143.27367,53.944762 147.11367,53.864762 Q 150.95367,53.784762 154.95367,53.704762 Q 154.91367,54.424762 154.91367,55.144762 Q 154.91367,55.864762 154.91367,56.544762 Q 154.91367,57.784762 154.95367,58.984762 Q 154.99367,60.184762 155.23367,61.184762 L 154.35367,61.344762 Q 153.39367,58.304762 151.27367,56.784762 Q 149.19367,55.224762 145.19367,55.224762 L 140.71367,55.224762 L 140.71367,64.944762 L 142.79367,64.944762 Q 143.83367,64.944762 144.83367,64.704762 Q 145.83367,64.424762 146.67367,63.864762 Q 147.55367,63.264762 148.19367,62.304762 Q 148.83367,61.344762 149.15367,59.944762 L 149.95367,59.944762 Q 149.91367,61.344762 149.83367,62.784762 Q 149.79367,64.224762 149.79367,65.624762 Q 149.79367,67.064762 149.83367,68.504762 Q 149.91367,69.904762 149.95367,71.344762 L 149.15367,71.344762 Q 148.83367,69.864762 148.23367,68.864762 Q 147.63367,67.864762 146.83367,67.264762 Q 146.03367,66.664762 144.99367,66.424762 Q 143.99367,66.144762 142.79367,66.144762 L 140.71367,66.144762 L 140.71367,78.024762 Q 141.67367,78.304762 142.83367,78.464762 Q 144.03367,78.584762 145.47367,78.584762 Q 149.39367,78.584762 152.55367,76.744762 Q 155.71367,74.864762 157.91367,70.944762 L 158.67367,71.504762 Q 157.67367,73.624762 156.75367,75.744762 Q 155.87367,77.864762 155.19367,80.104762 Q 152.07367,80.024762 148.99367,79.984762 Q 145.91367,79.944762 142.79367,79.944762 Q 140.87367,79.944762 139.07367,79.944762 Q 137.31367,79.944762 135.79367,79.944762 Q 134.31367,79.984762 133.11367,80.024762 Q 131.95367,80.064762 131.19367,80.104762 L 131.19367,79.144762 Z"
         style="fill:#344692;fill-opacity:1"
         id="path4789"
         inkscape:connector-curvature="0" />
      <path
         d="M 175.5968,53.144762 Q 178.9968,53.144762 181.7968,54.104762 Q 184.6368,55.024762 186.6768,56.784762 Q 188.7168,58.544762 189.8368,61.144762 Q 190.9568,63.704762 190.9568,66.944762 Q 190.9568,70.184762 189.8368,72.784762 Q 188.7168,75.344762 186.6768,77.104762 Q 184.6368,78.864762 181.7968,79.824762 Q 178.9968,80.744762 175.5968,80.744762 Q 172.1968,80.744762 169.3568,79.824762 Q 166.5568,78.864762 164.5168,77.104762 Q 162.4768,75.344762 161.3568,72.784762 Q 160.2368,70.184762 160.2368,66.944762 Q 160.2368,63.704762 161.3568,61.144762 Q 162.4768,58.544762 164.5168,56.784762 Q 166.5568,55.024762 169.3568,54.104762 Q 172.1968,53.144762 175.5968,53.144762 Z M 175.5968,54.584762 Q 173.1168,54.584762 171.2768,55.584762 Q 169.4768,56.584762 168.2768,58.304762 Q 167.1168,60.024762 166.5568,62.264762 Q 165.9968,64.464762 165.9968,66.944762 Q 165.9968,69.384762 166.5568,71.624762 Q 167.1168,73.864762 168.2768,75.584762 Q 169.4768,77.304762 171.2768,78.304762 Q 173.1168,79.304762 175.5968,79.304762 Q 178.0768,79.304762 179.8768,78.304762 Q 181.7168,77.304762 182.8768,75.584762 Q 184.0768,73.864762 184.6368,71.624762 Q 185.1968,69.384762 185.1968,66.944762 Q 185.1968,64.464762 184.6368,62.264762 Q 184.0768,60.024762 182.8768,58.304762 Q 181.7168,56.584762 179.8768,55.584762 Q 178.0768,54.584762 175.5968,54.584762 Z"
         style="fill:#344692;fill-opacity:1"
         id="path4791"
         inkscape:connector-curvature="0" />
      <path
         d="M 212.9393,61.664762 Q 212.5393,60.184762 211.6193,58.904762 Q 210.7393,57.624762 209.5393,56.664762 Q 208.3793,55.704762 206.9793,55.144762 Q 205.5793,54.584762 204.1393,54.584762 Q 202.3393,54.584762 201.0593,55.544762 Q 199.8193,56.464762 199.8193,58.344762 Q 199.8193,59.784762 200.9393,60.784762 Q 202.0993,61.784762 203.8193,62.624762 Q 205.5393,63.424762 207.4993,64.264762 Q 209.4993,65.104762 211.2193,66.304762 Q 212.9393,67.464762 214.0593,69.104762 Q 215.2193,70.744762 215.2193,73.184762 Q 215.2193,74.904762 214.5393,76.304762 Q 213.8593,77.704762 212.6193,78.704762 Q 211.3793,79.664762 209.6193,80.184762 Q 207.8593,80.744762 205.6993,80.744762 Q 204.6993,80.744762 203.6993,80.544762 Q 202.6993,80.384762 201.6993,80.144762 Q 200.7393,79.944762 199.7393,79.784762 Q 198.7393,79.584762 197.7393,79.584762 Q 197.5793,79.584762 197.2993,79.664762 Q 197.0593,79.704762 196.7393,79.784762 Q 196.4593,79.864762 196.1793,79.944762 Q 195.8993,80.024762 195.7393,80.104762 Q 195.4193,77.864762 195.0593,75.584762 Q 194.6993,73.304762 194.1393,70.984762 L 195.0193,70.984762 Q 195.4593,72.464762 196.4593,73.904762 Q 197.4593,75.344762 198.7793,76.504762 Q 200.1393,77.624762 201.6993,78.304762 Q 203.2593,78.984762 204.7793,78.984762 Q 206.0993,78.984762 207.1793,78.784762 Q 208.2593,78.584762 209.0193,78.144762 Q 209.8193,77.664762 210.2193,76.904762 Q 210.6593,76.104762 210.6593,74.904762 Q 210.6593,73.264762 209.4993,72.184762 Q 208.3393,71.064762 206.5793,70.184762 Q 204.8593,69.264762 202.8193,68.424762 Q 200.8193,67.584762 199.0593,66.504762 Q 197.3393,65.424762 196.1793,63.944762 Q 195.0193,62.464762 195.0193,60.304762 Q 195.0193,56.544762 197.2993,54.864762 Q 199.5793,53.144762 204.2193,53.144762 Q 205.4193,53.144762 206.5393,53.344762 Q 207.6593,53.504762 208.6593,53.744762 Q 209.6593,53.984762 210.5393,54.184762 Q 211.4193,54.344762 212.1793,54.344762 L 213.6193,54.344762 Q 213.5793,55.024762 213.5393,55.624762 Q 213.4993,56.224762 213.4993,56.864762 Q 213.4993,58.024762 213.5793,59.264762 Q 213.6993,60.504762 213.7793,61.664762 L 212.9393,61.664762 Z"
         style="fill:#344692;fill-opacity:1"
         id="path4793"
         inkscape:connector-curvature="0" />
      <path
         d="M 251.86305,62.064762 Q 251.42305,59.824762 250.66305,58.544762 Q 249.94305,57.224762 248.86305,56.544762 Q 247.78305,55.864762 246.38305,55.664762 Q 244.98305,55.464762 243.18305,55.464762 L 243.18305,74.584762 Q 243.18305,75.944762 243.30305,76.824762 Q 243.42305,77.664762 243.86305,78.184762 Q 244.30305,78.704762 245.18305,78.944762 Q 246.06305,79.184762 247.58305,79.304762 L 247.58305,80.104762 Q 245.90305,80.024762 244.18305,79.984762 Q 242.50305,79.944762 240.78305,79.944762 Q 238.94305,79.944762 237.14305,79.984762 Q 235.34305,80.024762 233.42305,80.104762 L 233.42305,79.304762 Q 234.94305,79.184762 235.82305,78.944762 Q 236.70305,78.704762 237.14305,78.184762 Q 237.58305,77.664762 237.70305,76.824762 Q 237.82305,75.944762 237.82305,74.584762 L 237.82305,55.464762 Q 236.02305,55.464762 234.62305,55.664762 Q 233.22305,55.864762 232.14305,56.544762 Q 231.06305,57.224762 230.30305,58.544762 Q 229.58305,59.824762 229.14305,62.064762 L 228.10305,62.064762 Q 228.18305,61.304762 228.22305,60.544762 Q 228.30305,59.744762 228.34305,58.784762 Q 228.42305,57.824762 228.46305,56.584762 Q 228.50305,55.344762 228.50305,53.704762 Q 231.50305,53.784762 234.42305,53.864762 Q 237.34305,53.944762 240.30305,53.944762 Q 243.30305,53.944762 246.30305,53.864762 Q 249.30305,53.784762 252.34305,53.704762 Q 252.34305,55.344762 252.38305,56.584762 Q 252.42305,57.824762 252.46305,58.784762 Q 252.54305,59.744762 252.58305,60.544762 Q 252.66305,61.304762 252.74305,62.064762 L 251.86305,62.064762 Z"
         style="font-style:normal;font-variant:normal;font-weight:bold;font-stretch:normal;font-size:40px;font-family:Cochin;-inkscape-font-specification:'Cochin Bold';text-align:end;text-anchor:end;fill:#474747;fill-opacity:1"
         id="path4795"
         inkscape:connector-curvature="0" />
      <path
         d="M 259.79805,76.944762 Q 259.79805,78.384762 260.67805,78.864762 Q 261.55805,79.304762 262.71805,79.304762 L 262.71805,80.104762 Q 262.19805,80.064762 261.67805,80.024762 Q 261.15805,80.024762 260.55805,79.984762 Q 259.95805,79.984762 259.19805,79.944762 Q 258.43805,79.944762 257.39805,79.944762 Q 255.43805,79.944762 254.27805,79.984762 Q 253.11805,80.024762 252.19805,80.104762 L 252.19805,79.304762 Q 253.31805,79.304762 254.19805,78.864762 Q 255.07805,78.384762 255.07805,76.944762 L 255.07805,67.784762 Q 255.07805,66.744762 254.39805,66.264762 Q 253.71805,65.784762 252.19805,65.784762 L 252.19805,64.984762 Q 254.35805,64.904762 256.35805,64.704762 Q 258.35805,64.504762 259.91805,64.104762 Q 259.87805,65.104762 259.83805,66.064762 Q 259.79805,67.024762 259.79805,67.944762 L 259.79805,76.944762 Z M 257.19805,53.144762 Q 258.47805,53.144762 259.35805,54.024762 Q 260.27805,54.904762 260.27805,56.224762 Q 260.27805,57.544762 259.35805,58.424762 Q 258.47805,59.304762 257.19805,59.304762 Q 255.91805,59.304762 254.99805,58.424762 Q 254.11805,57.544762 254.11805,56.224762 Q 254.11805,54.904762 254.99805,54.024762 Q 255.91805,53.144762 257.19805,53.144762 Z"
         style="font-style:normal;font-variant:normal;font-weight:bold;font-stretch:normal;font-size:40px;font-family:Cochin;-inkscape-font-specification:'Cochin Bold';text-align:end;text-anchor:end;fill:#474747;fill-opacity:1"
         id="path4797"
         inkscape:connector-curvature="0" />
      <path
         d="M 271.11305,66.864762 Q 272.27305,65.824762 273.71305,65.104762 Q 275.19305,64.344762 276.75305,64.344762 Q 278.43305,64.344762 279.63305,64.864762 Q 280.83305,65.344762 281.55305,66.984762 Q 282.31305,66.384762 282.95305,65.904762 Q 283.63305,65.384762 284.35305,65.064762 Q 285.07305,64.704762 285.87305,64.544762 Q 286.67305,64.344762 287.67305,64.344762 Q 289.11305,64.344762 290.07305,64.824762 Q 291.03305,65.304762 291.59305,66.104762 Q 292.19305,66.864762 292.43305,67.824762 Q 292.71305,68.784762 292.71305,69.744762 L 292.71305,76.944762 Q 292.71305,77.664762 292.95305,78.144762 Q 293.19305,78.584762 293.55305,78.864762 Q 293.95305,79.104762 294.39305,79.224762 Q 294.87305,79.304762 295.31305,79.304762 L 295.31305,80.104762 Q 294.91305,80.064762 294.47305,80.024762 Q 294.03305,80.024762 293.43305,79.984762 Q 292.87305,79.984762 292.11305,79.944762 Q 291.35305,79.944762 290.31305,79.944762 Q 288.35305,79.944762 287.27305,79.984762 Q 286.19305,80.024762 285.63305,80.104762 L 285.63305,79.304762 Q 285.99305,79.304762 286.39305,79.224762 Q 286.83305,79.104762 287.15305,78.864762 Q 287.51305,78.584762 287.75305,78.144762 Q 287.99305,77.664762 287.99305,76.944762 L 287.99305,70.184762 Q 287.99305,68.504762 287.15305,67.744762 Q 286.35305,66.984762 284.91305,66.984762 Q 284.11305,66.984762 283.35305,67.304762 Q 282.59305,67.624762 281.91305,68.144762 L 281.91305,76.944762 Q 281.91305,77.664762 282.15305,78.144762 Q 282.39305,78.584762 282.71305,78.864762 Q 283.07305,79.104762 283.47305,79.224762 Q 283.87305,79.304762 284.23305,79.304762 L 284.23305,80.104762 Q 283.63305,80.024762 282.59305,79.984762 Q 281.59305,79.944762 279.51305,79.944762 Q 277.55305,79.944762 276.43305,79.984762 Q 275.35305,80.024762 274.75305,80.104762 L 274.75305,79.304762 Q 275.15305,79.304762 275.55305,79.224762 Q 275.99305,79.104762 276.35305,78.864762 Q 276.71305,78.584762 276.95305,78.144762 Q 277.19305,77.664762 277.19305,76.944762 L 277.19305,69.824762 Q 277.19305,68.784762 276.47305,67.904762 Q 275.75305,66.984762 274.39305,66.984762 Q 273.51305,66.984762 272.63305,67.464762 Q 271.75305,67.904762 271.11305,68.504762 L 271.11305,76.944762 Q 271.11305,77.664762 271.35305,78.144762 Q 271.59305,78.584762 271.91305,78.864762 Q 272.27305,79.104762 272.67305,79.224762 Q 273.07305,79.304762 273.39305,79.304762 L 273.39305,80.104762 Q 272.83305,80.024762 271.79305,79.984762 Q 270.79305,79.944762 268.71305,79.944762 Q 266.75305,79.944762 265.63305,79.984762 Q 264.51305,80.024762 263.71305,80.104762 L 263.71305,79.304762 Q 264.19305,79.304762 264.67305,79.224762 Q 265.15305,79.104762 265.51305,78.864762 Q 265.91305,78.584762 266.15305,78.144762 Q 266.39305,77.664762 266.39305,76.944762 L 266.39305,67.784762 Q 266.39305,65.784762 263.75305,65.784762 L 263.75305,64.984762 Q 265.71305,64.904762 267.67305,64.824762 Q 269.63305,64.704762 271.11305,64.344762 L 271.11305,66.864762 Z"
         style="font-style:normal;font-variant:normal;font-weight:bold;font-stretch:normal;font-size:40px;font-family:Cochin;-inkscape-font-specification:'Cochin Bold';text-align:end;text-anchor:end;fill:#474747;fill-opacity:1"
         id="path4799"
         inkscape:connector-curvature="0" />
      <path
         d="M 307.0893,70.904762 Q 307.8893,70.904762 308.1693,70.704762 Q 308.4493,70.504762 308.4493,69.784762 Q 308.4493,68.024762 307.7293,66.944762 Q 307.0093,65.864762 305.2493,65.864762 Q 304.3293,65.864762 303.6893,66.384762 Q 303.0893,66.864762 302.6893,67.624762 Q 302.3293,68.384762 302.1693,69.264762 Q 302.0093,70.144762 302.0093,70.904762 L 307.0893,70.904762 Z M 302.0093,72.424762 Q 302.0093,74.944762 303.4093,76.584762 Q 304.8493,78.184762 307.4493,78.184762 Q 308.8493,78.184762 310.1693,77.584762 Q 311.5293,76.984762 312.4493,75.864762 L 313.4093,76.904762 Q 311.8493,78.664762 309.7693,79.624762 Q 307.6893,80.584762 305.4093,80.584762 Q 303.4493,80.584762 301.8893,79.984762 Q 300.3293,79.424762 299.2093,78.384762 Q 298.0893,77.304762 297.4893,75.824762 Q 296.8893,74.304762 296.8893,72.464762 Q 296.8893,70.624762 297.4893,69.144762 Q 298.0893,67.624762 299.2093,66.584762 Q 300.3293,65.504762 301.8893,64.944762 Q 303.4493,64.344762 305.4093,64.344762 Q 307.3293,64.344762 308.7693,64.984762 Q 310.2493,65.584762 311.2493,66.704762 Q 312.2893,67.784762 312.8493,69.264762 Q 313.4093,70.744762 313.5693,72.424762 L 302.0093,72.424762 Z"
         style="font-style:normal;font-variant:normal;font-weight:bold;font-stretch:normal;font-size:40px;font-family:Cochin;-inkscape-font-specification:'Cochin Bold';text-align:end;text-anchor:end;fill:#474747;fill-opacity:1"
         id="path4801"
         inkscape:connector-curvature="0" />
      <path
         d="M 322.88492,76.944762 Q 322.88492,78.384762 323.76492,78.864762 Q 324.64492,79.304762 325.80492,79.304762 L 325.80492,80.104762 Q 325.28492,80.064762 324.76492,80.024762 Q 324.24492,80.024762 323.64492,79.984762 Q 323.04492,79.984762 322.28492,79.944762 Q 321.52492,79.944762 320.48492,79.944762 Q 318.52492,79.944762 317.36492,79.984762 Q 316.20492,80.024762 315.28492,80.104762 L 315.28492,79.304762 Q 316.40492,79.304762 317.28492,78.864762 Q 318.16492,78.384762 318.16492,76.944762 L 318.16492,55.624762 Q 318.16492,54.224762 317.48492,53.704762 Q 316.84492,53.144762 315.36492,53.144762 L 315.36492,52.344762 Q 317.44492,52.264762 319.40492,52.064762 Q 321.40492,51.864762 322.88492,51.464762 L 322.88492,76.944762 Z"
         style="font-style:normal;font-variant:normal;font-weight:bold;font-stretch:normal;font-size:40px;font-family:Cochin;-inkscape-font-specification:'Cochin Bold';text-align:end;text-anchor:end;fill:#474747;fill-opacity:1"
         id="path4803"
         inkscape:connector-curvature="0" />
      <path
         d="M 332.63992,71.704762 Q 332.63992,73.584762 332.99992,74.984762 Q 333.35992,76.384762 333.95992,77.304762 Q 334.59992,78.184762 335.39992,78.624762 Q 336.19992,79.064762 337.03992,79.064762 Q 338.71992,79.064762 339.67992,77.584762 Q 340.63992,76.104762 340.63992,73.224762 Q 340.63992,71.344762 340.27992,69.944762 Q 339.91992,68.544762 339.27992,67.664762 Q 338.67992,66.744762 337.87992,66.304762 Q 337.07992,65.864762 336.23992,65.864762 Q 334.55992,65.864762 333.59992,67.344762 Q 332.63992,68.824762 332.63992,71.704762 Z M 336.63992,64.344762 Q 338.43992,64.344762 340.11992,64.904762 Q 341.79992,65.424762 343.07992,66.464762 Q 344.39992,67.504762 345.19992,69.024762 Q 345.99992,70.544762 345.99992,72.464762 Q 345.99992,74.384762 345.19992,75.904762 Q 344.39992,77.424762 343.07992,78.464762 Q 341.79992,79.504762 340.11992,80.024762 Q 338.43992,80.584762 336.63992,80.584762 Q 334.83992,80.584762 333.15992,80.024762 Q 331.47992,79.504762 330.15992,78.464762 Q 328.87992,77.424762 328.07992,75.904762 Q 327.27992,74.384762 327.27992,72.464762 Q 327.27992,70.544762 328.07992,69.024762 Q 328.87992,67.504762 330.15992,66.464762 Q 331.47992,65.424762 333.15992,64.904762 Q 334.83992,64.344762 336.63992,64.344762 Z"
         style="font-style:normal;font-variant:normal;font-weight:bold;font-stretch:normal;font-size:40px;font-family:Cochin;-inkscape-font-specification:'Cochin Bold';text-align:end;text-anchor:end;fill:#474747;fill-opacity:1"
         id="path4805"
         inkscape:connector-curvature="0" />
      <path
         d="M 364.70117,77.384762 Q 362.90117,78.904762 361.02117,79.744762 Q 359.18117,80.584762 357.14117,80.584762 Q 355.34117,80.584762 353.66117,80.024762 Q 351.98117,79.504762 350.66117,78.464762 Q 349.38117,77.424762 348.58117,75.904762 Q 347.78117,74.384762 347.78117,72.464762 Q 347.78117,70.544762 348.58117,69.024762 Q 349.38117,67.504762 350.66117,66.464762 Q 351.98117,65.424762 353.66117,64.904762 Q 355.34117,64.344762 357.14117,64.344762 Q 357.86117,64.344762 358.46117,64.424762 Q 359.10117,64.504762 359.70117,64.584762 Q 360.30117,64.664762 360.86117,64.744762 Q 361.46117,64.824762 362.02117,64.824762 L 363.02117,64.824762 Q 363.02117,65.424762 363.02117,66.304762 Q 363.06117,67.184762 363.10117,68.184762 Q 363.18117,69.144762 363.26117,70.104762 Q 363.34117,71.064762 363.46117,71.864762 L 362.70117,71.864762 Q 362.38117,71.024762 361.90117,69.984762 Q 361.42117,68.904762 360.70117,68.024762 Q 360.02117,67.104762 359.10117,66.504762 Q 358.18117,65.864762 356.98117,65.864762 Q 355.02117,65.864762 353.94117,67.264762 Q 352.90117,68.664762 352.90117,70.744762 Q 352.90117,72.344762 353.34117,73.744762 Q 353.78117,75.104762 354.58117,76.104762 Q 355.42117,77.064762 356.58117,77.624762 Q 357.74117,78.184762 359.14117,78.184762 Q 360.42117,78.184762 361.46117,77.784762 Q 362.54117,77.344762 363.78117,76.464762 L 364.70117,77.384762 Z"
         style="font-style:normal;font-variant:normal;font-weight:bold;font-stretch:normal;font-size:40px;font-family:Cochin;-inkscape-font-specification:'Cochin Bold';text-align:end;text-anchor:end;fill:#474747;fill-opacity:1"
         id="path4807"
         inkscape:connector-curvature="0" />
      <path
         d="M 372.43555,72.624762 Q 373.03555,72.064762 373.95555,71.464762 Q 374.87555,70.824762 375.71555,70.104762 Q 376.59555,69.384762 377.23555,68.624762 Q 377.87555,67.864762 377.87555,67.064762 Q 377.87555,66.304762 377.31555,66.024762 Q 376.79555,65.744762 376.27555,65.624762 L 376.27555,64.824762 Q 377.47555,64.904762 378.63555,64.944762 Q 379.83555,64.984762 381.03555,64.984762 Q 382.23555,64.984762 383.39555,64.944762 Q 384.59555,64.904762 385.79555,64.824762 L 385.79555,65.624762 Q 384.71555,65.704762 383.67555,66.104762 Q 382.63555,66.504762 381.59555,67.144762 Q 380.59555,67.744762 379.63555,68.504762 Q 378.67555,69.224762 377.71555,70.024762 Q 378.63555,71.224762 379.71555,72.784762 Q 380.83555,74.304762 382.07555,75.704762 Q 383.31555,77.104762 384.63555,78.144762 Q 385.99555,79.144762 387.39555,79.304762 L 387.39555,80.104762 Q 385.99555,80.024762 384.55555,79.984762 Q 383.15555,79.944762 381.75555,79.944762 Q 380.31555,79.944762 378.87555,79.984762 Q 377.47555,80.024762 376.07555,80.104762 L 376.07555,79.304762 Q 376.99555,79.104762 377.51555,78.904762 Q 378.03555,78.664762 378.03555,78.104762 Q 378.03555,77.784762 377.87555,77.464762 Q 377.71555,77.104762 377.47555,76.744762 Q 377.23555,76.384762 376.95555,76.064762 Q 376.67555,75.704762 376.43555,75.424762 L 374.35555,72.784762 L 372.43555,74.064762 L 372.43555,76.944762 Q 372.43555,78.384762 373.31555,78.864762 Q 374.19555,79.304762 375.35555,79.304762 L 375.35555,80.104762 Q 374.83555,80.064762 374.31555,80.024762 Q 373.79555,80.024762 373.19555,79.984762 Q 372.59555,79.984762 371.83555,79.944762 Q 371.07555,79.944762 370.03555,79.944762 Q 368.07555,79.944762 366.91555,79.984762 Q 365.75555,80.024762 364.83555,80.104762 L 364.83555,79.304762 Q 365.95555,79.304762 366.83555,78.864762 Q 367.71555,78.384762 367.71555,76.944762 L 367.71555,55.144762 Q 367.71555,54.104762 367.03555,53.624762 Q 366.39555,53.144762 364.91555,53.144762 L 364.91555,52.344762 Q 366.99555,52.264762 368.95555,52.064762 Q 370.95555,51.864762 372.43555,51.464762 L 372.43555,72.624762 Z"
         style="font-style:normal;font-variant:normal;font-weight:bold;font-stretch:normal;font-size:40px;font-family:Cochin;-inkscape-font-specification:'Cochin Bold';text-align:end;text-anchor:end;fill:#474747;fill-opacity:1"
         id="path4809"
         inkscape:connector-curvature="0" />
      <path
         d="M 385.7084,108.718 Q 385.7084,106.8055 385.1909,105.928 Q 384.6734,105.028 383.4359,105.028 Q 382.1984,105.028 381.6809,105.928 Q 381.1634,106.8055 381.1634,108.718 Q 381.1634,110.6305 381.6809,111.5305 Q 382.1984,112.408 383.4359,112.408 Q 384.6734,112.408 385.1909,111.5305 Q 385.7084,110.6305 385.7084,108.718 Z M 381.2984,104.893 Q 381.9284,104.5105 382.6934,104.263 Q 383.4809,103.993 384.2234,103.993 Q 385.2134,103.993 386.0459,104.353 Q 386.8784,104.6905 387.4859,105.298 Q 388.0934,105.9055 388.4309,106.738 Q 388.7684,107.5705 388.7684,108.5605 Q 388.7684,109.6405 388.3184,110.4955 Q 387.8684,111.3505 387.1259,111.9355 Q 386.4059,112.5205 385.4609,112.813 Q 384.5159,113.128 383.5034,113.128 Q 382.3109,113.128 380.9384,112.7005 Q 379.5659,112.273 378.4409,111.6205 Q 378.5084,111.2155 378.5534,110.6305 Q 378.5984,110.0455 378.6209,109.3705 Q 378.6434,108.6955 378.6434,107.998 Q 378.6434,107.278 378.6434,106.6705 L 378.6434,98.818001 Q 378.6434,98.233001 378.2384,97.963001 Q 377.8334,97.693001 376.7984,97.693001 L 376.7984,97.243001 Q 378.1709,97.198001 379.3184,97.085501 Q 380.4659,96.973001 381.2984,96.748001 L 381.2984,104.893 Z"
         style="font-style:normal;font-variant:normal;font-weight:bold;font-stretch:normal;font-size:22.5px;font-family:Cochin;-inkscape-font-specification:'Cochin Bold';text-align:end;text-anchor:end;fill:#474747;fill-opacity:1"
         id="path4811"
         inkscape:connector-curvature="0" />
      <path
         d="M 395.63336,107.683 Q 396.08336,107.683 396.24086,107.5705 Q 396.39836,107.458 396.39836,107.053 Q 396.39836,106.063 395.99336,105.4555 Q 395.58836,104.848 394.59836,104.848 Q 394.08086,104.848 393.72086,105.1405 Q 393.38336,105.4105 393.15836,105.838 Q 392.95586,106.2655 392.86586,106.7605 Q 392.77586,107.2555 392.77586,107.683 L 395.63336,107.683 Z M 392.77586,108.538 Q 392.77586,109.9555 393.56336,110.878 Q 394.37336,111.778 395.83586,111.778 Q 396.62336,111.778 397.36586,111.4405 Q 398.13086,111.103 398.64836,110.473 L 399.18836,111.058 Q 398.31086,112.048 397.14086,112.588 Q 395.97086,113.128 394.68836,113.128 Q 393.58586,113.128 392.70836,112.7905 Q 391.83086,112.4755 391.20086,111.8905 Q 390.57086,111.283 390.23336,110.4505 Q 389.89586,109.5955 389.89586,108.5605 Q 389.89586,107.5255 390.23336,106.693 Q 390.57086,105.838 391.20086,105.253 Q 391.83086,104.6455 392.70836,104.3305 Q 393.58586,103.993 394.68836,103.993 Q 395.76836,103.993 396.57836,104.353 Q 397.41086,104.6905 397.97336,105.3205 Q 398.55836,105.928 398.87336,106.7605 Q 399.18836,107.593 399.27836,108.538 L 392.77586,108.538 Z"
         style="font-style:normal;font-variant:normal;font-weight:bold;font-stretch:normal;font-size:22.5px;font-family:Cochin;-inkscape-font-specification:'Cochin Bold';text-align:end;text-anchor:end;fill:#474747;fill-opacity:1"
         id="path4813"
         inkscape:connector-curvature="0" />
      <path
         d="M 399.8159,105.118 L 399.8159,104.6005 Q 400.5359,104.5555 401.0984,104.263 Q 401.6834,103.9705 402.1109,103.5205 Q 402.5609,103.0705 402.8984,102.508 Q 403.2359,101.923 403.4834,101.3155 L 403.9334,101.3155 L 403.9334,104.353 L 407.0384,104.353 L 407.0384,105.118 L 403.9334,105.118 L 403.9334,109.888 Q 403.9334,110.878 404.2259,111.2605 Q 404.5409,111.643 405.3059,111.643 Q 405.7109,111.643 406.1609,111.373 Q 406.6334,111.103 407.0159,110.7205 L 407.4884,111.238 Q 407.1509,111.5305 406.7234,111.868 Q 406.2959,112.2055 405.8009,112.498 Q 405.3284,112.768 404.8334,112.948 Q 404.3609,113.128 403.9109,113.128 Q 402.7409,113.128 402.0659,112.5655 Q 401.4134,111.9805 401.4134,110.833 L 401.4134,105.118 L 399.8159,105.118 Z"
         style="font-style:normal;font-variant:normal;font-weight:bold;font-stretch:normal;font-size:22.5px;font-family:Cochin;-inkscape-font-specification:'Cochin Bold';text-align:end;text-anchor:end;fill:#474747;fill-opacity:1"
         id="path4815"
         inkscape:connector-curvature="0" />
      <path
         d="M 410.94355,110.293 Q 410.94355,110.9905 411.34855,111.3955 Q 411.75355,111.778 412.47355,111.778 Q 412.87855,111.778 413.26105,111.643 Q 413.66605,111.508 413.98105,111.2155 Q 413.95855,110.9005 413.93605,110.6305 Q 413.93605,110.3605 413.93605,110.068 Q 413.93605,109.753 413.93605,109.4605 Q 413.95855,109.168 413.98105,108.853 Q 413.66605,108.808 413.37355,108.7855 Q 413.10355,108.763 412.78855,108.763 Q 412.11355,108.763 411.52855,109.1455 Q 410.94355,109.528 410.94355,110.293 Z M 413.98105,106.378 Q 413.98105,104.848 412.90105,104.848 Q 412.51855,104.848 412.27105,104.983 Q 412.04605,105.118 411.91105,105.343 Q 411.79855,105.5455 411.75355,105.8155 Q 411.70855,106.0855 411.70855,106.333 Q 411.70855,106.558 411.70855,106.7155 Q 411.73105,106.8505 411.75355,106.963 Q 410.92105,106.783 410.20105,106.6255 Q 409.48105,106.468 408.73855,106.3555 Q 408.82855,105.6355 409.18855,105.1855 Q 409.54855,104.713 410.06605,104.4655 Q 410.60605,104.1955 411.23605,104.1055 Q 411.86605,103.993 412.47355,103.993 Q 413.19355,103.993 413.93605,104.128 Q 414.67855,104.2405 415.26355,104.5555 Q 415.87105,104.848 416.25355,105.3655 Q 416.63605,105.8605 416.63605,106.6255 Q 416.63605,107.0305 416.61355,107.5255 Q 416.59105,108.0205 416.56855,108.5155 Q 416.56855,108.988 416.54605,109.438 Q 416.52355,109.8655 416.52355,110.158 Q 416.52355,110.653 416.70355,111.058 Q 416.88355,111.463 417.46855,111.463 Q 417.85105,111.463 418.14355,111.2605 Q 418.45855,111.058 418.72855,110.8105 L 419.08855,111.2155 Q 418.81855,111.4405 418.48105,111.778 Q 418.16605,112.1155 417.80605,112.408 Q 417.46855,112.7005 417.08605,112.903 Q 416.70355,113.128 416.29855,113.128 Q 415.73605,113.128 415.19605,112.723 Q 414.65605,112.318 414.27355,111.9355 Q 413.44105,112.453 412.51855,112.7905 Q 411.59605,113.128 410.60605,113.128 Q 410.13355,113.128 409.66105,112.9705 Q 409.21105,112.813 408.85105,112.543 Q 408.49105,112.2505 408.26605,111.868 Q 408.06355,111.4855 408.06355,111.058 Q 408.06355,109.978 408.64855,109.393 Q 409.23355,108.7855 410.11105,108.493 Q 411.01105,108.178 412.04605,108.1105 Q 413.08105,108.043 413.98105,108.043 L 413.98105,106.378 Z"
         style="font-style:normal;font-variant:normal;font-weight:bold;font-stretch:normal;font-size:22.5px;font-family:Cochin;-inkscape-font-specification:'Cochin Bold';text-align:end;text-anchor:end;fill:#474747;fill-opacity:1"
         id="path4817"
         inkscape:connector-curvature="0" />
    </g>
    <g
       transform="matrix(0.88185698,0,0,0.88185698,-27.653974,1121.6438)"
       style="font-style:normal;font-weight:normal;font-size:40px;line-height:125%;font-family:Sans;letter-spacing:0px;word-spacing:0px;fill:#000000;fill-opacity:1;stroke:none;stroke-width:1px;stroke-linecap:butt;stroke-linejoin:miter;stroke-opacity:1"
       id="flowRoot4847">
      <path
         d="M 101.05898,-138.75117 L 101.05898,-135.51117 L 78.018984,-135.51117 L 78.018984,-125.99117 L 96.538984,-125.99117 L 96.538984,-122.71117 L 78.018984,-122.71117 L 78.018984,-113.19117 L 101.05898,-113.19117 L 101.05898,-109.95117 L 74.778984,-109.95117 L 74.778984,-138.75117 L 101.05898,-138.75117 Z"
         style="fill:#1d488f;fill-opacity:1"
         id="path4957"
         inkscape:connector-curvature="0" />
      <path
         d="M 108.87211,-138.75117 L 128.07211,-138.75117 Q 130.07211,-138.75117 131.47211,-137.35117 Q 132.87211,-135.95117 132.87211,-133.95117 L 132.87211,-114.75117 Q 132.87211,-112.75117 131.47211,-111.35117 Q 130.07211,-109.95117 128.07211,-109.95117 L 108.87211,-109.95117 Q 106.87211,-109.95117 105.47211,-111.35117 Q 104.07211,-112.75117 104.07211,-114.75117 L 104.07211,-133.95117 Q 104.07211,-135.95117 105.47211,-137.35117 Q 106.87211,-138.75117 108.87211,-138.75117 Z M 108.87211,-113.19117 L 128.07211,-113.19117 Q 128.71211,-113.19117 129.15211,-113.63117 Q 129.63211,-114.11117 129.63211,-114.75117 L 129.63211,-133.95117 Q 129.63211,-134.59117 129.15211,-135.03117 Q 128.71211,-135.51117 128.07211,-135.51117 L 108.87211,-135.51117 Q 108.23211,-135.51117 107.75211,-135.03117 Q 107.31211,-134.59117 107.31211,-133.95117 L 107.31211,-114.75117 Q 107.31211,-114.11117 107.75211,-113.63117 Q 108.23211,-113.19117 108.87211,-113.19117 Z"
         style="fill:#1d488f;fill-opacity:1"
         id="path4959"
         inkscape:connector-curvature="0" />
      <path
         d="M 165.95523,-133.95117 L 165.95523,-132.83117 L 162.71523,-132.83117 L 162.71523,-133.95117 Q 162.71523,-134.59117 162.23523,-135.03117 Q 161.79523,-135.51117 161.15523,-135.51117 L 141.95523,-135.51117 Q 141.31523,-135.51117 140.83523,-135.03117 Q 140.39523,-134.59117 140.39523,-133.95117 L 140.39523,-127.51117 Q 140.39523,-126.87117 140.83523,-126.43117 Q 141.31523,-125.99117 141.95523,-125.99117 L 161.15523,-125.99117 Q 163.15523,-125.99117 164.55523,-124.59117 Q 165.95523,-123.19117 165.95523,-121.19117 L 165.95523,-114.75117 Q 165.95523,-112.75117 164.55523,-111.35117 Q 163.15523,-109.95117 161.15523,-109.95117 L 141.95523,-109.95117 Q 139.95523,-109.95117 138.55523,-111.35117 Q 137.15523,-112.75117 137.15523,-114.75117 L 137.15523,-115.87117 L 140.39523,-115.87117 L 140.39523,-114.75117 Q 140.39523,-114.11117 140.83523,-113.63117 Q 141.31523,-113.19117 141.95523,-113.19117 L 161.15523,-113.19117 Q 161.79523,-113.19117 162.23523,-113.63117 Q 162.71523,-114.11117 162.71523,-114.75117 L 162.71523,-121.19117 Q 162.71523,-121.83117 162.23523,-122.27117 Q 161.79523,-122.71117 161.15523,-122.71117 L 141.95523,-122.71117 Q 139.95523,-122.71117 138.55523,-124.11117 Q 137.15523,-125.51117 137.15523,-127.51117 L 137.15523,-133.95117 Q 137.15523,-135.95117 138.55523,-137.35117 Q 139.95523,-138.75117 141.95523,-138.75117 L 161.15523,-138.75117 Q 163.15523,-138.75117 164.55523,-137.35117 Q 165.95523,-135.95117 165.95523,-133.95117 Z"
         style="fill:#1d488f;fill-opacity:1"
         id="path4961"
         inkscape:connector-curvature="0" />
      <path
         d="M 179.66523,-138.75117 L 208.46523,-138.75117 L 208.46523,-135.51117 L 195.70523,-135.51117 L 195.70523,-109.95117 L 192.46523,-109.95117 L 192.46523,-135.51117 L 179.66523,-135.51117 L 179.66523,-138.75117 Z"
         style="font-style:normal;font-variant:normal;font-weight:normal;font-stretch:normal;font-family:Orbitron;-inkscape-font-specification:Orbitron"
         id="path4963"
         inkscape:connector-curvature="0" />
      <path
         d="M 211.33586,-109.95117 L 211.33586,-133.15117 L 214.61586,-133.15117 L 214.61586,-109.95117 L 211.33586,-109.95117 Z M 211.33586,-140.75117 L 214.61586,-140.75117 L 214.61586,-137.47117 L 211.33586,-137.47117 L 211.33586,-140.75117 Z"
         style="font-style:normal;font-variant:normal;font-weight:normal;font-stretch:normal;font-family:Orbitron;-inkscape-font-specification:Orbitron"
         id="path4965"
         inkscape:connector-curvature="0" />
      <path
         d="M 250.41523,-133.15117 Q 252.45523,-133.15117 253.85523,-131.71117 Q 255.25523,-130.31117 255.25523,-128.31117 L 255.25523,-109.95117 L 252.01523,-109.95117 L 252.01523,-128.31117 Q 252.01523,-128.95117 251.53523,-129.39117 Q 251.05523,-129.87117 250.41523,-129.87117 L 240.77523,-129.87117 Q 240.13523,-129.87117 239.65523,-129.39117 Q 239.21523,-128.95117 239.21523,-128.31117 L 239.21523,-109.95117 L 235.89523,-109.95117 L 235.89523,-128.31117 Q 235.89523,-128.95117 235.41523,-129.39117 Q 234.97523,-129.87117 234.33523,-129.87117 L 224.65523,-129.87117 Q 224.01523,-129.87117 223.53523,-129.39117 Q 223.09523,-128.95117 223.09523,-128.31117 L 223.09523,-109.95117 L 219.77523,-109.95117 L 219.77523,-133.15117 L 250.41523,-133.15117 Z"
         style="font-style:normal;font-variant:normal;font-weight:normal;font-stretch:normal;font-family:Orbitron;-inkscape-font-specification:Orbitron"
         id="path4967"
         inkscape:connector-curvature="0" />
      <path
         d="M 277.71211,-133.15117 Q 279.75211,-133.15117 281.15211,-131.71117 Q 282.59211,-130.31117 282.59211,-128.31117 L 282.59211,-119.91117 L 262.23211,-119.91117 L 262.23211,-114.79117 Q 262.23211,-114.15117 262.67211,-113.67117 Q 263.15211,-113.23117 263.79211,-113.23117 L 282.59211,-113.23117 L 282.59211,-109.95117 L 263.79211,-109.95117 Q 261.79211,-109.95117 260.35211,-111.35117 Q 258.95211,-112.79117 258.95211,-114.79117 L 258.95211,-128.31117 Q 258.95211,-130.31117 260.35211,-131.71117 Q 261.79211,-133.15117 263.79211,-133.15117 L 277.71211,-133.15117 Z M 262.23211,-123.19117 L 279.27211,-123.19117 L 279.27211,-128.31117 Q 279.27211,-128.95117 278.79211,-129.39117 Q 278.35211,-129.87117 277.71211,-129.87117 L 263.79211,-129.87117 Q 263.15211,-129.87117 262.67211,-129.39117 Q 262.23211,-128.95117 262.23211,-128.31117 L 262.23211,-123.19117 Z"
         style="font-style:normal;font-variant:normal;font-weight:normal;font-stretch:normal;font-family:Orbitron;-inkscape-font-specification:Orbitron"
         id="path4969"
         inkscape:connector-curvature="0" />
      <path
         d="M 285.86711,-140.75117 L 289.14711,-140.75117 L 289.14711,-114.79117 Q 289.14711,-114.15117 289.58711,-113.67117 Q 290.06711,-113.23117 290.70711,-113.23117 L 294.62711,-113.23117 L 294.62711,-109.95117 L 290.70711,-109.95117 Q 288.70711,-109.95117 287.26711,-111.35117 Q 285.86711,-112.79117 285.86711,-114.79117 L 285.86711,-140.75117 Z"
         style="font-style:normal;font-variant:normal;font-weight:normal;font-stretch:normal;font-family:Orbitron;-inkscape-font-specification:Orbitron"
         id="path4971"
         inkscape:connector-curvature="0" />
      <path
         d="M 302.38586,-133.15117 L 316.30586,-133.15117 Q 318.34586,-133.15117 319.74586,-131.71117 Q 321.18586,-130.31117 321.18586,-128.31117 L 321.18586,-114.79117 Q 321.18586,-112.79117 319.74586,-111.35117 Q 318.34586,-109.95117 316.30586,-109.95117 L 302.38586,-109.95117 Q 300.38586,-109.95117 298.94586,-111.35117 Q 297.54586,-112.79117 297.54586,-114.79117 L 297.54586,-128.31117 Q 297.54586,-130.31117 298.94586,-131.71117 Q 300.38586,-133.15117 302.38586,-133.15117 Z M 316.30586,-129.87117 L 302.38586,-129.87117 Q 301.74586,-129.87117 301.26586,-129.39117 Q 300.82586,-128.95117 300.82586,-128.31117 L 300.82586,-114.79117 Q 300.82586,-114.15117 301.26586,-113.67117 Q 301.74586,-113.23117 302.38586,-113.23117 L 316.30586,-113.23117 Q 316.94586,-113.23117 317.38586,-113.67117 Q 317.86586,-114.15117 317.86586,-114.79117 L 317.86586,-128.31117 Q 317.86586,-128.95117 317.38586,-129.39117 Q 316.94586,-129.87117 316.30586,-129.87117 Z"
         style="font-style:normal;font-variant:normal;font-weight:normal;font-stretch:normal;font-family:Orbitron;-inkscape-font-specification:Orbitron"
         id="path4973"
         inkscape:connector-curvature="0" />
      <path
         d="M 330.04211,-113.23117 L 348.84211,-113.23117 L 348.84211,-109.95117 L 330.04211,-109.95117 Q 328.04211,-109.95117 326.60211,-111.35117 Q 325.20211,-112.79117 325.20211,-114.79117 L 325.20211,-128.31117 Q 325.20211,-130.31117 326.60211,-131.71117 Q 328.04211,-133.15117 330.04211,-133.15117 L 348.76211,-133.15117 L 348.76211,-129.87117 L 330.04211,-129.87117 Q 329.40211,-129.87117 328.92211,-129.39117 Q 328.48211,-128.95117 328.48211,-128.31117 L 328.48211,-114.79117 Q 328.48211,-114.15117 328.92211,-113.67117 Q 329.40211,-113.23117 330.04211,-113.23117 Z"
         style="font-style:normal;font-variant:normal;font-weight:normal;font-stretch:normal;font-family:Orbitron;-inkscape-font-specification:Orbitron"
         id="path4975"
         inkscape:connector-curvature="0" />
      <path
         d="M 371.15336,-133.15117 L 375.47336,-133.15117 L 364.95336,-121.55117 L 375.43336,-109.95117 L 371.15336,-109.95117 L 362.03336,-119.91117 L 355.63336,-119.91117 L 355.63336,-109.95117 L 352.35336,-109.95117 L 352.35336,-140.75117 L 355.63336,-140.75117 L 355.63336,-123.19117 L 362.03336,-123.19117 L 371.15336,-133.15117 Z"
         style="font-style:normal;font-variant:normal;font-weight:normal;font-stretch:normal;font-family:Orbitron;-inkscape-font-specification:Orbitron"
         id="path4977"
         inkscape:connector-curvature="0" />
    </g>
    <g
       transform="matrix(0.59766189,0,0,0.59766189,123.98252,1078.187)"
       style="font-style:normal;font-weight:normal;font-size:40px;line-height:125%;font-family:Sans;letter-spacing:0px;word-spacing:0px;fill:#83b7d2;fill-opacity:1;stroke:none;stroke-width:1px;stroke-linecap:butt;stroke-linejoin:miter;stroke-opacity:1"
       id="text4855">
      <path
         d="M 272.08483,-71.39212 Q 274.08483,-71.39212 275.48483,-69.95212 Q 276.92483,-68.55212 276.92483,-66.55212 L 276.92483,-53.03212 Q 276.92483,-51.03212 275.48483,-49.59212 Q 274.08483,-48.19212 272.08483,-48.19212 L 253.28483,-48.19212 L 253.28483,-78.99212 L 256.56483,-78.99212 L 256.56483,-71.39212 L 272.08483,-71.39212 Z M 273.64483,-53.03212 L 273.64483,-66.55212 Q 273.64483,-67.19212 273.16483,-67.63212 Q 272.72483,-68.11212 272.08483,-68.11212 L 258.16483,-68.11212 Q 257.52483,-68.11212 257.04483,-67.63212 Q 256.56483,-67.19212 256.56483,-66.55212 L 256.56483,-53.03212 Q 256.56483,-52.39212 257.04483,-51.91212 Q 257.52483,-51.47212 258.16483,-51.47212 L 272.08483,-51.47212 Q 272.72483,-51.47212 273.16483,-51.91212 Q 273.64483,-52.39212 273.64483,-53.03212 Z"
         style="font-style:normal;font-variant:normal;font-weight:normal;font-stretch:normal;font-family:Orbitron;-inkscape-font-specification:Orbitron;fill:#83b7d2;fill-opacity:1"
         id="path4948"
         inkscape:connector-curvature="0" />
      <path
         d="M 298.64358,-71.39212 Q 300.68358,-71.39212 302.08358,-69.95212 Q 303.52358,-68.55212 303.52358,-66.55212 L 303.52358,-58.15212 L 283.16358,-58.15212 L 283.16358,-53.03212 Q 283.16358,-52.39212 283.60358,-51.91212 Q 284.08358,-51.47212 284.72358,-51.47212 L 303.52358,-51.47212 L 303.52358,-48.19212 L 284.72358,-48.19212 Q 282.72358,-48.19212 281.28358,-49.59212 Q 279.88358,-51.03212 279.88358,-53.03212 L 279.88358,-66.55212 Q 279.88358,-68.55212 281.28358,-69.95212 Q 282.72358,-71.39212 284.72358,-71.39212 L 298.64358,-71.39212 Z M 283.16358,-61.43212 L 300.20358,-61.43212 L 300.20358,-66.55212 Q 300.20358,-67.19212 299.72358,-67.63212 Q 299.28358,-68.11212 298.64358,-68.11212 L 284.72358,-68.11212 Q 284.08358,-68.11212 283.60358,-67.63212 Q 283.16358,-67.19212 283.16358,-66.55212 L 283.16358,-61.43212 Z"
         style="font-style:normal;font-variant:normal;font-weight:normal;font-stretch:normal;font-family:Orbitron;-inkscape-font-specification:Orbitron;fill:#83b7d2;fill-opacity:1"
         id="path4950"
         inkscape:connector-curvature="0" />
      <path
         d="M 320.93983,-68.11212 L 310.89983,-68.11212 L 310.89983,-53.03212 Q 310.89983,-52.39212 311.33983,-51.91212 Q 311.81983,-51.47212 312.45983,-51.47212 L 320.93983,-51.47212 L 320.93983,-48.19212 L 312.45983,-48.19212 Q 310.41983,-48.19212 309.01983,-49.59212 Q 307.61983,-51.03212 307.61983,-53.03212 L 307.61983,-78.99212 L 310.89983,-78.99212 L 310.89983,-71.39212 L 320.93983,-71.39212 L 320.93983,-68.11212 Z"
         style="font-style:normal;font-variant:normal;font-weight:normal;font-stretch:normal;font-family:Orbitron;-inkscape-font-specification:Orbitron;fill:#83b7d2;fill-opacity:1"
         id="path4952"
         inkscape:connector-curvature="0" />
      <path
         d="M 342.74608,-71.39212 Q 344.78608,-71.39212 346.18608,-69.95212 Q 347.62608,-68.55212 347.62608,-66.55212 L 347.62608,-48.19212 L 328.82608,-48.19212 Q 326.82608,-48.19212 325.38608,-49.59212 Q 323.98608,-51.03212 323.98608,-53.03212 L 323.98608,-61.43212 L 344.30608,-61.43212 L 344.30608,-66.55212 Q 344.30608,-67.19212 343.82608,-67.63212 Q 343.38608,-68.11212 342.74608,-68.11212 L 323.98608,-68.11212 L 323.98608,-71.39212 L 342.74608,-71.39212 Z M 344.30608,-51.47212 L 344.30608,-58.15212 L 327.26608,-58.15212 L 327.26608,-53.03212 Q 327.26608,-52.39212 327.70608,-51.91212 Q 328.18608,-51.47212 328.82608,-51.47212 L 344.30608,-51.47212 Z"
         style="font-style:normal;font-variant:normal;font-weight:normal;font-stretch:normal;font-family:Orbitron;-inkscape-font-specification:Orbitron;fill:#83b7d2;fill-opacity:1"
         id="path4954"
         inkscape:connector-curvature="0" />
    </g>
    <flowRoot
       transform="translate(-24.814706,1028.0953)"
       style="font-style:normal;font-weight:normal;font-size:40px;line-height:125%;font-family:Sans;letter-spacing:0px;word-spacing:0px;fill:#000000;fill-opacity:1;stroke:none;stroke-width:1px;stroke-linecap:butt;stroke-linejoin:miter;stroke-opacity:1"
       id="flowRoot4933"
       xml:space="preserve"><flowRegion
         id="flowRegion4935"><rect
           y="-147.45094"
           x="72.458939"
           height="78.414474"
           width="473.46457"
           id="rect4937" /></flowRegion><flowPara
         style="font-style:normal;font-variant:normal;font-weight:normal;font-stretch:normal;font-family:Orbitron;-inkscape-font-specification:Orbitron"
         id="flowPara4939"><flowSpan
   id="flowSpan4941"
   style="fill:#1d488f;fill-opacity:1">EOS</flowSpan> Timelock</flowPara></flowRoot>    <text
       transform="matrix(0.67773109,0,0,0.67773109,181.87723,993.70529)"
       sodipodi:linespacing="125%"
       id="text4943"
       y="-48.19212"
       x="251.12483"
       style="font-style:normal;font-weight:normal;font-size:40px;line-height:125%;font-family:Sans;letter-spacing:0px;word-spacing:0px;fill:#83b7d2;fill-opacity:1;stroke:none;stroke-width:1px;stroke-linecap:butt;stroke-linejoin:miter;stroke-opacity:1"
       xml:space="preserve"><tspan
         style="font-style:normal;font-variant:normal;font-weight:normal;font-stretch:normal;font-family:Orbitron;-inkscape-font-specification:Orbitron;fill:#83b7d2;fill-opacity:1"
         y="-48.19212"
         x="251.12483"
         id="tspan4945"
         sodipodi:role="line">beta</tspan></text>
  </g>
</svg>
