<?xml version="1.0" encoding="UTF-8" standalone="no"?>
<!-- Created with Inkscape (http://www.inkscape.org/) -->

<svg
   xmlns:dc="http://purl.org/dc/elements/1.1/"
   xmlns:cc="http://creativecommons.org/ns#"
   xmlns:rdf="http://www.w3.org/1999/02/22-rdf-syntax-ns#"
   xmlns:svg="http://www.w3.org/2000/svg"
   xmlns="http://www.w3.org/2000/svg"
   xmlns:sodipodi="http://sodipodi.sourceforge.net/DTD/sodipodi-0.dtd"
   xmlns:inkscape="http://www.inkscape.org/namespaces/inkscape"
   width="400"
   height="400"
   viewBox="0 0 400 400.00001"
   id="svg2"
   version="1.1"
   inkscape:version="0.91 r13725"
   sodipodi:docname="github_white.svg">
  <defs
     id="defs4" />
  <sodipodi:namedview
     id="base"
     pagecolor="#ffffff"
     bordercolor="#666666"
     borderopacity="1.0"
     inkscape:pageopacity="0.0"
     inkscape:pageshadow="2"
     inkscape:zoom="1.0074671"
     inkscape:cx="234.5017"
     inkscape:cy="125.13609"
     inkscape:document-units="px"
     inkscape:current-layer="layer1"
     showgrid="false"
     units="px"
     inkscape:snap-global="false"
     inkscape:window-width="1440"
     inkscape:window-height="816"
     inkscape:window-x="0"
     inkscape:window-y="1"
     inkscape:window-maximized="1" />
  <metadata
     id="metadata7">
    <rdf:RDF>
      <cc:Work
         rdf:about="">
        <dc:format>image/svg+xml</dc:format>
        <dc:type
           rdf:resource="http://purl.org/dc/dcmitype/StillImage" />
        <dc:title></dc:title>
      </cc:Work>
    </rdf:RDF>
  </metadata>
  <g
     inkscape:label="Ebene 1"
     inkscape:groupmode="layer"
     id="layer1"
     transform="translate(0,-652.36216)">
    <path
       transform="matrix(0.72897038,0,0,0.72897038,1.9274239,653.54753)"
       inkscape:connector-curvature="0"
       id="path4315"
       d="M 192.72198,477.54142 C 87.071528,435.56175 33.208121,317.51765 69.642982,207.80823 C 85.219481,160.90565 117.69906,119.58076 159.27968,93.760344 C 196.62308,70.571126 243.04361,59.697847 286.14405,64.044358 C 350.12625,70.496714 405.31384,104.48384 441.3793,159.64557 C 457.84333,184.82713 469.3548,216.40814 474.13179,249.5 C 476.06568,262.89676 475.7819,294.96736 473.60529,309 C 466.05579,357.6718 443.3709,401.73978 409.23567,434.04527 C 392.8887,449.51601 377.73876,460.10133 357.22805,470.3832 C 336.11013,480.96946 326.96928,482.93566 322.38729,477.87745 C 320.62631,475.93345 320.46115,473.14062 319.91955,436.14701 C 319.50847,408.06865 318.96482,395.33283 318.05638,392.5 C 316.45704,387.51268 312.33635,379.27541 309.85097,376.09734 C 308.81753,374.77587 308.12911,373.53756 308.32114,373.34553 C 308.51316,373.1535 313.58197,372.1068 319.58514,371.01954 C 375.14398,360.95697 401.38136,327.89327 401.3353,268 C 401.3247,254.21566 400.96522,250.18331 399.15115,243.5 C 396.45307,233.55986 390.58988,221.22424 385.14243,214.02691 C 382.86409,211.01671 381,208.23214 381,207.83896 C 381,207.44579 381.70435,204.08702 382.56522,200.37502 C 385.38084,188.23427 384.45852,170.75326 380.30307,157.5 C 378.16138,150.66936 377.43743,150 372.19144,150 C 361.60775,150 342.57728,157.35449 326.87235,167.51396 L 319.59166,172.22381 L 310.04583,170.11027 C 293.11651,166.36196 285.84977,165.60166 267,165.60647 C 248.20247,165.61128 239.47555,166.52998 223.68893,170.16595 L 214.87786,172.19531 L 206.53973,167.08198 C 188.1894,155.8287 171.28149,149.54191 161.1371,150.20014 C 157.31473,150.44816 156.30476,150.94235 155.29502,153.05871 C 150.45634,163.20035 148.50804,187.19632 151.44973,200.41864 C 152.37473,204.57636 152.78424,208.54555 152.35975,209.23906 C 151.93526,209.93258 150.03757,212.525 148.14266,215 C 135.77744,231.15061 130.25919,255.44189 132.92227,282 C 138.27709,335.40221 164.83274,363.23425 218.80574,372.01143 C 226.03756,373.18749 226.09547,373.22126 224.52898,375.34975 C 221.26358,379.78667 216.05747,391.43393 215.41013,395.75073 C 214.803,399.79934 214.34429,400.40205 210.61936,402.04539 C 204.72272,404.64682 193.64424,406.35108 187.40056,405.61726 C 174.03398,404.04628 164.88465,397.70703 155.5701,383.56303 C 146.74007,370.15476 137.78696,363.31798 125.75254,360.79374 C 118.51945,359.27658 112.66516,361.1654 112.19493,365.16793 C 111.9523,367.23319 112.86264,368.55625 116.6428,371.63233 C 130.17736,382.64601 134.46729,387.99792 141.85207,403.0822 C 149.53901,418.78369 153.41971,423.68049 163.22114,430.04644 C 171.27403,435.27674 180.15652,437.5 193,437.5 C 198.775,437.5 205.75,437.275 208.5,437 L 213.5,436.5 L 213.5,456.22395 C 213.5,474.93788 213.3923,476.05552 211.39675,478.04943 C 207.83684,481.60641 202.59338,481.46377 192.72198,477.54142 Z"
       style="fill:#f9f9f9;fill-opacity:1" />
    <path
       style="fill:#000000"
       d=""
       id="path3447"
       inkscape:connector-curvature="0"
       transform="matrix(0.43159477,0,0,0.43159477,437.11507,801.41831)" />
  </g>
</svg>
