<?xml version="1.0" encoding="UTF-8" standalone="no"?>
<!-- Created with Inkscape (http://www.inkscape.org/) -->

<svg
   xmlns:dc="http://purl.org/dc/elements/1.1/"
   xmlns:cc="http://creativecommons.org/ns#"
   xmlns:rdf="http://www.w3.org/1999/02/22-rdf-syntax-ns#"
   xmlns:svg="http://www.w3.org/2000/svg"
   xmlns="http://www.w3.org/2000/svg"
   xmlns:sodipodi="http://sodipodi.sourceforge.net/DTD/sodipodi-0.dtd"
   xmlns:inkscape="http://www.inkscape.org/namespaces/inkscape"
   width="400"
   height="400"
   viewBox="0 0 400 400.00001"
   id="svg2"
   version="1.1"
   inkscape:version="0.91 r13725"
   sodipodi:docname="logo.svg">
  <defs
     id="defs4" />
  <sodipodi:namedview
     id="base"
     pagecolor="#ffffff"
     bordercolor="#666666"
     borderopacity="1.0"
     inkscape:pageopacity="0.0"
     inkscape:pageshadow="2"
     inkscape:zoom="0.56857668"
     inkscape:cx="613.93087"
     inkscape:cy="213.0069"
     inkscape:document-units="px"
     inkscape:current-layer="layer1"
     showgrid="false"
     units="px"
     inkscape:snap-global="false"
     inkscape:window-width="1231"
     inkscape:window-height="593"
     inkscape:window-x="194"
     inkscape:window-y="14"
     inkscape:window-maximized="0" />
  <metadata
     id="metadata7">
    <rdf:RDF>
      <cc:Work
         rdf:about="">
        <dc:format>image/svg+xml</dc:format>
        <dc:type
           rdf:resource="http://purl.org/dc/dcmitype/StillImage" />
        <dc:title></dc:title>
      </cc:Work>
    </rdf:RDF>
  </metadata>
  <g
     inkscape:label="Ebene 1"
     inkscape:groupmode="layer"
     id="layer1"
     transform="translate(0,-652.36216)">
    <path
       style="opacity:1;fill:#c83737;fill-opacity:1;fill-rule:nonzero;stroke:none;stroke-width:9.60299969;stroke-linecap:butt;stroke-miterlimit:4;stroke-dasharray:none;stroke-dashoffset:0;stroke-opacity:1"
       d="M 957.36328,296.91992 C 954.94685,296.87663 952.52977,296.9542 950.12109,297.15234 C 910.98635,300.37072 881.52735,334.16099 883.67383,373.36914 C 885.82125,412.57768 918.79428,442.94952 958.04688,441.875 C 997.29885,440.80037 1028.5606,408.67098 1028.5605,369.4043 L 1028.127,361.48828 C 1024.143,325.22742 993.83648,297.57421 957.36328,296.91992 Z"
       transform="translate(-756.39397,538.06676)"
       id="path4303"
       inkscape:connector-curvature="0"
       sodipodi:nodetypes="cccsccc" />
    <path
       style="opacity:1;fill:#000000;fill-rule:evenodd;stroke:none;stroke-width:1px;stroke-linecap:butt;stroke-linejoin:miter;stroke-opacity:1"
       d="M 36.630859,210.98633 L -39.919922,318.37109 L -73.943359,468.28711 L 36.630859,536.33398 L 146.14453,470.41602 L 113.18359,316.24609 L 36.630859,210.98633 Z M 35.501953,347.83594 C 76.504368,347.02378 110.47487,379.45903 111.0293,421.44727 C 111.58372,463.4355 78.482227,496.75661 37.472656,497.02734 C -3.5369125,497.29808 -37.075726,464.41703 -37.617188,423.41016 C -38.158655,382.40326 -5.5004699,348.6481 35.501953,347.83594 Z"
       transform="matrix(1.1318946,0,0,1.1318946,158.22546,429.33515)"
       id="path5873"
       inkscape:connector-curvature="0" />
  </g>
</svg>
